<?xml version="1.0" encoding="UTF-8" standalone="no"?>
<svg
   xmlns:dc="http://purl.org/dc/elements/1.1/"
   xmlns:cc="http://creativecommons.org/ns#"
   xmlns:rdf="http://www.w3.org/1999/02/22-rdf-syntax-ns#"
   xmlns:svg="http://www.w3.org/2000/svg"
   xmlns="http://www.w3.org/2000/svg"
   xmlns:sodipodi="http://sodipodi.sourceforge.net/DTD/sodipodi-0.dtd"
   xmlns:inkscape="http://www.inkscape.org/namespaces/inkscape"
   viewBox="0 0 200 200"
   id="svg2"
   version="1.1"
   inkscape:version="0.91 r13725"
   sodipodi:docname="wheel.svg"
   width="200"
   height="200">
  <metadata
     id="metadata66">
    <rdf:RDF>
      <cc:Work
         rdf:about="">
        <dc:format>image/svg+xml</dc:format>
        <dc:type
           rdf:resource="http://purl.org/dc/dcmitype/StillImage" />
        <dc:title></dc:title>
      </cc:Work>
    </rdf:RDF>
  </metadata>
  <sodipodi:namedview
     pagecolor="#ffffff"
     bordercolor="#666666"
     borderopacity="1"
     objecttolerance="10"
     gridtolerance="10"
     guidetolerance="10"
     inkscape:pageopacity="0"
     inkscape:pageshadow="2"
     inkscape:window-width="1858"
     inkscape:window-height="1057"
     id="namedview64"
     showgrid="false"
     inkscape:zoom="2.9405674"
     inkscape:cx="60.11577"
     inkscape:cy="61.81362"
     inkscape:window-x="54"
     inkscape:window-y="-8"
     inkscape:window-maximized="1"
     inkscape:current-layer="svg2" />
  <defs
     id="defs4">
    <filter
       height="1"
       id="filter6996"
       width="1"
       x="0"
       y="0">
      <feConvolveMatrix
         divisor="1"
         in="SourceGraphic"
         kernelMatrix="0 -0.3 0 -0.3 2.2 -0.3 0 -0.3 0"
         order="3 3"
         result="result1"
         targetX="1"
         targetY="1"
         id="feConvolveMatrix7" />
      <feBlend
         in2="SourceGraphic"
         mode="normal"
         result="fbSourceGraphic"
         id="feBlend9" />
      <feColorMatrix
         in="fbSourceGraphic"
         result="fbSourceGraphicAlpha"
         values="0 0 0 -1 0 0 0 0 -1 0 0 0 0 -1 0 0 0 0 1 0"
         id="feColorMatrix11" />
      <feColorMatrix
         in="fbSourceGraphic"
         type="saturate"
         values="0"
         id="feColorMatrix13" />
      <feColorMatrix
         result="result0"
         values="3 0 0 0 -0.3 0 3 0 0 -0.3 0 0 3 0 -0.3 0 0 0 1 0"
         id="feColorMatrix15" />
      <feTurbulence
         baseFrequency=".111"
         numOctaves="2"
         type="fractalNoise"
         id="feTurbulence17" />
      <feColorMatrix
         values="0 0 0 0 0 0 0 0 0 0 0 0 0 0 0 0 0 0 255 -200"
         id="feColorMatrix19" />
      <feGaussianBlur
         result="result2"
         stdDeviation="1"
         id="feGaussianBlur21" />
      <feComposite
         in2="result0"
         operator="atop"
         id="feComposite23" />
    </filter>
    <radialGradient
       cx="136.82368"
       cy="-348.81152"
       gradientUnits="userSpaceOnUse"
       id="radialGradient7137"
       r="12.30435"
       gradientTransform="matrix(3.5080718,0,0,3.5080718,-423.86306,1362.7428)">
      <stop
         offset="0"
         stop-color="#ececec"
         id="stop26" />
      <stop
         offset="1"
         stop-color="#ececec"
         stop-opacity="0"
         id="stop28" />
    </radialGradient>
    <radialGradient
       cx="136.82368"
       cy="-348.81152"
       gradientUnits="userSpaceOnUse"
       id="radialGradient7137-7"
       r="12.30435">
      <stop
         offset="0"
         stop-color="#ececec"
         id="stop26-0" />
      <stop
         offset="1"
         stop-color="#ececec"
         stop-opacity="0"
         id="stop28-2" />
    </radialGradient>
    <filter
       height="1"
       id="filter6996-4"
       width="1"
       x="0"
       y="0">
      <feConvolveMatrix
         divisor="1"
         in="SourceGraphic"
         kernelMatrix="0 -0.3 0 -0.3 2.2 -0.3 0 -0.3 0"
         order="3 3"
         result="result1"
         targetX="1"
         targetY="1"
         id="feConvolveMatrix7-6" />
      <feBlend
         in2="SourceGraphic"
         mode="normal"
         result="fbSourceGraphic"
         id="feBlend9-9" />
      <feColorMatrix
         in="fbSourceGraphic"
         result="fbSourceGraphicAlpha"
         values="0 0 0 -1 0 0 0 0 -1 0 0 0 0 -1 0 0 0 0 1 0"
         id="feColorMatrix11-2" />
      <feColorMatrix
         in="fbSourceGraphic"
         type="saturate"
         values="0"
         id="feColorMatrix13-3" />
      <feColorMatrix
         result="result0"
         values="3 0 0 0 -0.3 0 3 0 0 -0.3 0 0 3 0 -0.3 0 0 0 1 0"
         id="feColorMatrix15-5" />
      <feTurbulence
         baseFrequency=".111"
         numOctaves="2"
         type="fractalNoise"
         id="feTurbulence17-1" />
      <feColorMatrix
         values="0 0 0 0 0 0 0 0 0 0 0 0 0 0 0 0 0 0 255 -200"
         id="feColorMatrix19-0" />
      <feGaussianBlur
         result="result2"
         stdDeviation="1"
         id="feGaussianBlur21-7" />
      <feComposite
         in2="result0"
         operator="atop"
         id="feComposite23-4" />
    </filter>
  </defs>
  <g
     id="g4363"
     transform="matrix(0.84257282,0,0,0.84257282,35.399948,29.546546)">
    <path
       d="m 93.306677,167.19353 c -2.487923,-4.92277 -16.463417,-7.9906 -29.45468,-6.65407 -18.148244,0.60539 -35.436627,7.70969 -33.546058,14.76115 2.112183,7.55613 24.805968,12.55384 43.810773,9.11681 15.360559,-2.66875 23.999081,-10.03552 19.865553,-15.84801 -0.186963,-0.46264 -0.413693,-0.92137 -0.675588,-1.37588 z"
       id="path32"
       inkscape:connector-curvature="0"
       style="opacity:0.49320003;fill:#4d4d4d" />
    <path
       id="path36"
       d="m 65.728516,95.332031 c -5.979282,0.132443 -11.88237,1.660148 -17.556641,3.460938 -16.040939,5.911491 -29.59031,20.729731 -30.880859,38.210941 -0.623385,13.08122 5.650439,26.19128 15.689453,34.48047 6.860982,6.34575 15.203107,13.67052 26.792969,10.67578 13.445948,1.4696 27.883377,-5.07079 35.861328,-16.6836 7.197824,-9.52077 9.529864,-22.18737 6.888674,-33.7539 -1.2962,-4.06772 -1.80447,-8.17594 -2.50391,-12.36914 C 96.730012,105.12976 82.331279,95.944639 68.294922,95.363281 67.438045,95.32193 66.582699,95.313111 65.728516,95.332031 Z M 61.28125,123.30859 c 0.393825,0.005 0.796068,0.025 1.205078,0.0645 8.172263,2.61117 14.387372,10.91621 13.914063,19.58984 0.513476,14.44575 -23.115301,19.93795 -28.44336,6.3125 -3.774279,-9.91707 1.115629,-26.11307 13.324219,-25.9668 z"
       style="fill:#cccccc;stroke:#000000;stroke-width:1.05242157"
       inkscape:connector-curvature="0" />
    <path
       id="path38"
       d="m 61.439453,95.332031 c -5.979281,0.132443 -11.882369,1.660148 -17.556641,3.460938 -16.040938,5.911491 -29.590309,20.729721 -30.880859,38.210941 -0.623384,13.08121 5.650439,26.19128 15.689453,34.48047 6.860982,6.34575 15.203107,13.67051 26.792969,10.67578 13.445948,1.4696 27.883376,-5.07079 35.861328,-16.6836 7.197827,-9.52076 9.529867,-22.18737 6.888672,-33.7539 -1.296197,-4.06772 -1.804467,-8.17595 -2.503906,-12.36914 -3.289519,-14.22376 -17.688253,-23.408881 -31.72461,-23.990239 -0.856877,-0.04135 -1.712223,-0.05017 -2.566406,-0.03125 z m -0.478515,28.080079 a 14.729132,17.15255 10.130588 0 1 2.492187,0.32812 14.729132,17.15255 10.130588 0 1 10.658203,20.11719 14.729132,17.15255 10.130588 0 1 -18.029297,13.37696 14.729132,17.15255 10.130588 0 1 -10.658203,-20.11719 14.729132,17.15255 10.130588 0 1 15.53711,-13.70508 z"
       style="opacity:0.49320003;fill:url(#radialGradient7137);filter:url(#filter6996)"
       inkscape:connector-curvature="0" />
    <path
       style="fill:none;stroke:#000000;stroke-width:0.87701797"
       inkscape:connector-curvature="0"
       id="path42"
       d="m 29.376063,110.11792 6.383673,4.50612 0.751008,10.13874 4.881623,-2.25305 1.126512,1.87755" />
    <path
       style="fill:none;stroke:#000000;stroke-width:0.87701797"
       inkscape:connector-curvature="0"
       id="path44"
       d="m 48.527013,99.228161 1.877555,6.008169 -3.755075,6.00813 3.755075,-6.00813 6.759142,0 0,3.37957 -3.755075,4.88162 3.004067,0.75101" />
    <path
       style="fill:none;stroke:#000000;stroke-width:0.87701797"
       inkscape:connector-curvature="0"
       id="path46"
       d="m 65.049399,125.13829 6.008135,-7.88569 -0.751008,-6.00814" />
    <path
       style="fill:none;stroke:#000000;stroke-width:0.87701797"
       inkscape:connector-curvature="0"
       id="path48"
       d="m 99.22072,126.2648 -11.26526,-6.38364 -4.130615,6.38364 -4.130579,-4.88162 -1.502051,-0.75101" />
    <path
       style="fill:none;stroke:#000000;stroke-width:0.87701797"
       inkscape:connector-curvature="0"
       id="path50"
       d="m 86.077904,122.88523 4.881623,5.63263 -3.379571,3.37957" />
    <path
       style="fill:none;stroke:#000000;stroke-width:0.87701797"
       inkscape:connector-curvature="0"
       id="path52"
       d="m 96.216653,159.68508 -5.63263,-4.50609 0,-4.88162 -1.502051,0" />
    <path
       style="fill:none;stroke:#000000;stroke-width:0.87701797"
       inkscape:connector-curvature="0"
       id="path54"
       d="m 88.706468,154.42799 -7.510186,0.3755 -1.126512,-3.37961" />
    <path
       style="fill:none;stroke:#000000;stroke-width:0.87701797"
       inkscape:connector-curvature="0"
       id="path56"
       d="m 71.808577,181.08909 -1.126547,-9.0122 -7.88569,-3.75508 3.004103,-5.63263 4.881587,0" />
    <path
       style="fill:none;stroke:#000000;stroke-width:0.87701797"
       inkscape:connector-curvature="0"
       id="path58"
       d="m 57.16371,156.30551 -7.51015,6.00813" />
    <path
       style="fill:none;stroke:#000000;stroke-width:0.87701797"
       inkscape:connector-curvature="0"
       id="path60"
       d="m 23.743433,160.81162 5.63263,-10.51425 0,-3.00406 2.253059,-1.87756" />
    <path
       inkscape:connector-curvature="0"
       id="path62"
       d="m 60.141221,123.29718 c -11.356505,0.85608 -15.821158,16.38449 -12.168624,25.98166 2.462386,6.29709 8.818731,8.43088 14.909305,7.56428 -4.386528,-0.60504 -8.379696,-2.92114 -10.195333,-7.56428 -3.458187,-9.08654 0.360173,-23.42396 10.414588,-25.65278 l -0.657764,-0.21925 c -0.818012,-0.0789 -1.54506,-0.16663 -2.302172,-0.1098 z" />
  </g>
</svg>
